<svg id="Layer_1" data-name="Layer 1" xmlns="http://www.w3.org/2000/svg" viewBox="0 0 1302.85 184.02"><defs><style>.cls-1,.cls-4{fill:#dece70;}.cls-1,.cls-3,.cls-5{fill-rule:evenodd;}.cls-2,.cls-5{fill:#fff;}.cls-3{fill:#e7dc9a;}</style></defs><title>Dream_Nikah_Logo</title><path class="cls-1" d="M845.85,113.86c-1,1.43-4.68,2.85-5.38,4.19-.62,1.15.26,5.34-.18,6.76-1.23-1.16-3-4.89-4.14-5.43s-5.11.27-6.69-.18c.79-.62,5-3.38,5.37-3.91.62-.89-.09-5.25.26-6.86l1,1.07a15,15,0,0,0,1,1.43,11.15,11.15,0,0,0,2,2.76C840.21,114.4,844.35,113.86,845.85,113.86Z" transform="translate(-31.15 -19.54)"/><path class="cls-1" d="M610.14,196.53c-1.06.35-5,1-5.73,1.69-1.32,1.24-1.41,4.18-2.38,5.34-.53-1.25-1-4.9-1.68-5.7s-4.14-1.51-5.37-2.31c1.41-.89,4.23-.63,5.55-1.69,1-.8,1.76-4.54,2.56-5.7.26,1,1.14,5.25,1.4,5.7.53.71,1.77,1,2.74,1.33A8.88,8.88,0,0,1,610.14,196.53Z" transform="translate(-31.15 -19.54)"/><path class="cls-2" d="M718.62,101.68a4.37,4.37,0,0,1,1-6,4.19,4.19,0,0,1,5.91,1,58.54,58.54,0,0,1,8.19,16.64,59.93,59.93,0,0,1,2.82,18.33A60.6,60.6,0,0,1,719,174.38a59.36,59.36,0,0,1-84.59,0,60.82,60.82,0,0,1-13.84-63.62,61.82,61.82,0,0,1,10.58-18.33,4.26,4.26,0,1,1,6.43,5.6,52.47,52.47,0,0,0,2.82,70.3,51.11,51.11,0,0,0,72.6,0,52,52,0,0,0,15.07-36.66,51.57,51.57,0,0,0-9.43-30ZM676.68,79.79a4.32,4.32,0,0,1,0-8.63,57,57,0,0,1,15.24,2,56,56,0,0,1,14.28,5.87,4.24,4.24,0,0,1,1.58,5.78,4.16,4.16,0,0,1-5.81,1.6,50.74,50.74,0,0,0-25.29-6.67Z" transform="translate(-31.15 -19.54)"/><path class="cls-3" d="M675.7,33.78c1.68.18,7.67,0,8.9.89,2.21,1.51,3.18,5.78,4.94,7.3.44-2,.09-7.57.88-8.9,1-1.6,5.73-3.38,7.31-4.9-2.29-.89-6.43.27-8.63-1-1.59-.88-3.79-6.13-5.29-7.65-.09,1.52-.35,8-.62,8.72-.53,1.25-2.2,2-3.61,2.76C678,32,676.76,32.44,675.7,33.78Z" transform="translate(-31.15 -19.54)"/><polygon class="cls-4" points="624.9 14.43 606.39 23.06 621.64 31.86 624.9 14.43"/><polygon class="cls-4" points="602.51 24.82 584.01 33.45 599.25 42.17 602.51 24.82"/><polygon class="cls-2" points="625.25 31.6 643.4 23.15 628.51 14.43 625.25 31.6"/><polygon class="cls-4" points="603.49 45.56 625.08 67.54 621.47 37.19 603.49 45.56"/><polygon class="cls-2" points="581.71 36.13 578.45 53.22 596.69 44.85 581.71 36.13"/><polygon class="cls-2" points="628.77 68.88 644.37 26.52 624.81 35.69 628.77 68.88"/><polygon class="cls-2" points="619.08 34.44 605.69 26.69 602.87 41.91 619.08 34.44"/><polygon class="cls-2" points="600.05 47.07 623.76 71.18 580.49 56.23 600.05 47.07"/><path class="cls-4" d="M724.24,183.36a4.36,4.36,0,0,1-2.11-5.7,4.24,4.24,0,0,1,5.64-2A82.81,82.81,0,0,0,740,180.33a48.38,48.38,0,0,0,13,2h.09a50.72,50.72,0,0,0,36.21-15.13,51.82,51.82,0,0,0,15.07-36.66v-.08a52.85,52.85,0,0,0-3.17-17.89,51.33,51.33,0,0,0-9.08-15.66,4.36,4.36,0,0,1,.44-6.05,4.26,4.26,0,0,1,6,.44,60.66,60.66,0,0,1,14.36,39.16v.08a61.31,61.31,0,0,1-17.53,42.72,59.78,59.78,0,0,1-42.3,17.7H753a57.68,57.68,0,0,1-15.33-2.4A85.28,85.28,0,0,1,724.24,183.36ZM753,70a4.32,4.32,0,1,1,0,8.63,51.1,51.1,0,0,0-36.3,15.12l-.18.27a51.9,51.9,0,0,0-14.8,36.4,50.53,50.53,0,0,0,1.85,13.88A49.92,49.92,0,0,0,709,157.11c.44.8,1,1.6,1.41,2.31a4.32,4.32,0,0,1-1.15,6,4.11,4.11,0,0,1-5.81-1.15l-1.76-2.67a60.62,60.62,0,0,1-6.35-14.95,61.38,61.38,0,0,1-2.2-16.2A60.6,60.6,0,0,1,710.41,88l.26-.27A59.41,59.41,0,0,1,753,70Z" transform="translate(-31.15 -19.54)"/><path class="cls-5" d="M847.25,46c-1.67.09-7.66,0-8.9.8-2.2,1.6-3.17,5.78-4.93,7.3-.44-2-.09-7.48-.88-8.81-1-1.6-5.73-3.47-7.32-5,2.29-.89,6.44.27,8.73-1,1.5-.8,3.7-6.14,5.2-7.65.08,1.51.35,8.1.61,8.72.53,1.25,2.21,2,3.62,2.85C845,44.19,846.2,44.63,847.25,46Z" transform="translate(-31.15 -19.54)"/><polygon class="cls-4" points="742.43 13.26 760.94 21.89 745.78 30.61 742.43 13.26"/><polygon class="cls-4" points="764.9 23.68 783.4 32.22 768.16 41.03 764.9 23.68"/><polygon class="cls-2" points="742.17 30.35 723.93 21.98 738.91 13.26 742.17 30.35"/><polygon class="cls-2" points="763.94 44.41 742.26 66.39 745.96 36.05 763.94 44.41"/><polygon class="cls-2" points="785.71 34.97 788.88 52.05 770.73 43.6 785.71 34.97"/><polygon class="cls-4" points="738.65 67.72 722.97 25.36 742.62 34.44 738.65 67.72"/><polygon class="cls-2" points="748.35 33.27 761.66 25.53 764.56 40.75 748.35 33.27"/><polygon class="cls-4" points="767.28 45.9 743.66 70.02 786.93 55.07 767.28 45.9"/><path class="cls-4" d="M592.87,178.47V63.24l-57.8,83.38L476.65,63.24V178.47h7.84V88.33l50.58,72.17,50-72v90ZM401.58,82.73l-27.05,59H427.4Zm-30.66,66.91-13.4,28.83h-8.63l53-115.23,50.14,115.23h-8.55l-12.6-28.83Zm-46.35,28.83v-8.19h-65.2V125.61h50.84v-8H259.37V72.76h65.2v-8.1h-73V178.47Zm-113.58,0-46.78-57.39H178c8.55,0,15.51-1.16,20.8-3.38a27.47,27.47,0,0,0,10.3-8.46,20.29,20.29,0,0,0,.62-24.2,26.74,26.74,0,0,0-10.4-9,33.63,33.63,0,0,0-15.59-3.47H152.22V178.47h-7.84V64.66h39.39a42.6,42.6,0,0,1,14.89,2.58,36.37,36.37,0,0,1,12.16,7.21,33.71,33.71,0,0,1,7.75,10.41,28,28,0,0,1,2.65,11.84A27.65,27.65,0,0,1,215.49,114,33,33,0,0,1,202,124.9,35.67,35.67,0,0,1,191.52,128a106.94,106.94,0,0,1-10.84.53l40.71,49.92ZM39,72.76H63.58c13.92,0,25.29,4.8,34.19,14.5A45.68,45.68,0,0,1,107,102.75a55.44,55.44,0,0,1,0,37.46,45.27,45.27,0,0,1-9.25,15.57Q84.56,170.6,63.58,170.64H39ZM63.58,178.47A53.82,53.82,0,0,0,85.79,174a50.16,50.16,0,0,0,17.71-12.81A59.08,59.08,0,0,0,114.42,143a63.08,63.08,0,0,0,0-43.07A56.23,56.23,0,0,0,103.5,81.84,51,51,0,0,0,85.79,69.11a55.3,55.3,0,0,0-22.21-4.45H31.15V178.47Z" transform="translate(-31.15 -19.54)"/><path class="cls-4" d="M1326.25,176.51H1334V63.5h-7.75V116h-66.09V63.5h-7.93v113h7.93V124h66.09ZM1177.69,81.39l-26.79,58.55h52.43Zm-30.4,66.38L1134,176.51h-8.54L1178,62.08l49.78,114.43h-8.45l-12.6-28.74Zm-39.92,28.74H1097l-40.09-48.14-36.13,50V63.5h7.75v90.58l65.21-90.58h9.87l-42,58Zm-121.68,0V63.5h-7.75v113Zm-42.91,1.87V63.5h-7.67v92.1L857.66,62.08V176.51h7.76V84.68Z" transform="translate(-31.15 -19.54)"/></svg>